HIERARCHY
ROOT joint_Root
{
	OFFSET 0.0 0.0 0.0
	CHANNELS 6 Xposition Yposition Zposition Zrotation Xrotation Yrotation 
	JOINT Hips
	{
		OFFSET 4.5925 91.4895 -427.239
		CHANNELS 6 Xposition Yposition Zposition Zrotation Xrotation Yrotation 
		JOINT Spine
		{
			OFFSET 15.7357 0.0 0.0
			CHANNELS 6 Xposition Yposition Zposition Zrotation Xrotation Yrotation 
			JOINT Chest
			{
				OFFSET 8.98455 -0.406207 0.0
				CHANNELS 6 Xposition Yposition Zposition Zrotation Xrotation Yrotation 
				JOINT Neck
				{
					OFFSET 16.3773 0.0 0.0
					CHANNELS 6 Xposition Yposition Zposition Zrotation Xrotation Yrotation 
					JOINT Head
					{
						OFFSET 6.45672 0.0 0.0
						CHANNELS 6 Xposition Yposition Zposition Zrotation Xrotation Yrotation 
						End Site
						{
							OFFSET 0.0 0.0 0.0
						}
					}
				}
				JOINT Shoulder_L
				{
					OFFSET 12.9942 -0.242716 4.98039
					CHANNELS 6 Xposition Yposition Zposition Zrotation Xrotation Yrotation 
					JOINT UpperArm_L
					{
						OFFSET 5.34809 0.0 0.0
						CHANNELS 6 Xposition Yposition Zposition Zrotation Xrotation Yrotation 
						JOINT LowerArm_L
						{
							OFFSET 24.3286 1.87007e-05 0.0
							CHANNELS 6 Xposition Yposition Zposition Zrotation Xrotation Yrotation 
							JOINT Hand_L
							{
								OFFSET 22.2916 0.0 0.0
								CHANNELS 6 Xposition Yposition Zposition Zrotation Xrotation Yrotation 
								End Site
								{
									OFFSET 0.0 0.0 0.0
								}
							}
						}
					}
				}
				JOINT Shoulder_R
				{
					OFFSET 12.9945 -0.242716 -4.98039
					CHANNELS 6 Xposition Yposition Zposition Zrotation Xrotation Yrotation 
					JOINT UpperArm_R
					{
						OFFSET -5.34813 0.0 0.0
						CHANNELS 6 Xposition Yposition Zposition Zrotation Xrotation Yrotation 
						JOINT LowerArm_R
						{
							OFFSET -24.3289 0.000322201 0.0
							CHANNELS 6 Xposition Yposition Zposition Zrotation Xrotation Yrotation 
							JOINT Hand_R
							{
								OFFSET -22.2915 -0.000108084 0.0
								CHANNELS 6 Xposition Yposition Zposition Zrotation Xrotation Yrotation 
								End Site
								{
									OFFSET 0.0 0.0 0.0
								}
							}
						}
					}
				}
			}
		}
		JOINT UpperLeg_L
		{
			OFFSET -2.19248 -6.46944 0.0
			CHANNELS 6 Xposition Yposition Zposition Zrotation Xrotation Yrotation 
			JOINT LowerLeg_L
			{
				OFFSET 39.0811 0.0 -1.23785e-05
				CHANNELS 6 Xposition Yposition Zposition Zrotation Xrotation Yrotation 
				JOINT Foot_L
				{
					OFFSET 40.9854 0.0 -1.26872e-05
					CHANNELS 6 Xposition Yposition Zposition Zrotation Xrotation Yrotation 
					JOINT Toes_L
					{
						OFFSET 11.7543 0.0 0.0
						CHANNELS 6 Xposition Yposition Zposition Zrotation Xrotation Yrotation 
						End Site
						{
							OFFSET 0.0 0.0 0.0
						}
					}
				}
			}
		}
		JOINT UpperLeg_R
		{
			OFFSET -2.19251 6.46944 0.0
			CHANNELS 6 Xposition Yposition Zposition Zrotation Xrotation Yrotation 
			JOINT LowerLeg_R
			{
				OFFSET -39.0811 -0.00228153 -0.0401928
				CHANNELS 6 Xposition Yposition Zposition Zrotation Xrotation Yrotation 
				JOINT Foot_R
				{
					OFFSET -40.9854 0.0 0.0
					CHANNELS 6 Xposition Yposition Zposition Zrotation Xrotation Yrotation 
					JOINT Toes_R
					{
						OFFSET -11.7543 0.0 0.0
						CHANNELS 6 Xposition Yposition Zposition Zrotation Xrotation Yrotation 
						End Site
						{
							OFFSET 0.0 0.0 0.0
						}
					}
				}
			}
		}
	}
}
MOTION
Frames:	9
Frame Time:	0.0333333
0.000000 0.000000 0.000000 0.000000 0.000000 -0.000000 -0.246677 90.610700 1.105610 89.329300 -4.822390 8.859100 15.735700 0.000005 -0.000001 87.842900 80.094900 -88.513900 8.984550 -0.406207 -0.000000 12.026600 -0.764008 -1.261130 16.377300 -0.000001 -0.000001 21.128700 -3.263560 2.541790 6.456720 -0.000001 -0.000000 -3.205270 -3.464140 1.221140 12.994200 -0.242716 4.980390 -87.708900 -6.879610 -71.529800 5.348090 -0.000007 -0.000001 -70.761000 -14.749000 -77.399500 24.328600 0.000019 0.000005 43.534400 -3.188710 -93.350600 22.291600 -0.000001 0.000005 21.155300 5.117960 4.698970 12.994500 -0.242716 -4.980390 90.622800 -2.845090 -77.647100 -5.348130 -0.000001 -0.000004 -65.012700 -15.159100 -77.579100 -24.328900 0.000322 -0.000009 20.071100 -1.067920 -92.920800 -22.291500 -0.000108 -0.000004 26.429000 5.352710 -1.458960 -2.192480 -6.469440 -0.000000 -175.290000 -13.931200 -0.882590 39.081100 -0.000007 -0.000012 -0.202581 0.329267 31.602200 40.985400 -0.000006 -0.000013 0.788350 4.121520 -71.624300 11.754300 -0.000000 0.000003 -0.000240 -0.002157 -16.658500 -2.192510 6.469440 -0.000001 174.543000 19.327500 -179.761000 -39.081100 -0.002282 -0.040193 -0.068644 0.119845 30.976700 -40.985400 0.000008 0.000006 6.817850 14.367400 -72.993300 -11.754300 -0.000006 -0.000006 -0.002072 -0.029613 -17.777300
0.000000 0.000000 0.000000 0.000000 0.000000 -0.000000 -0.257224 90.607500 1.139470 89.325100 -4.829070 8.823880 15.735700 0.000005 -0.000001 87.831400 80.100900 -88.496900 8.984550 -0.406207 -0.000000 12.014600 -0.767232 -1.249870 16.377300 -0.000001 -0.000001 21.003400 -3.250970 2.523980 6.456720 -0.000001 -0.000000 -3.226040 -3.439780 1.129280 12.994200 -0.242716 4.980390 -87.724200 -6.821230 -71.499600 5.348090 -0.000007 -0.000001 -70.741300 -14.743200 -77.331700 24.328600 0.000019 0.000005 43.490700 -3.217800 -93.386200 22.291600 -0.000001 0.000005 21.201100 5.119530 4.662550 12.994500 -0.242716 -4.980390 90.613400 -2.787640 -77.584400 -5.348130 -0.000001 -0.000004 -65.038100 -15.105400 -77.609600 -24.328900 0.000322 -0.000009 20.040400 -1.029890 -92.821700 -22.291500 -0.000108 -0.000004 26.480700 5.353010 -1.467910 -2.192480 -6.469440 -0.000000 -175.288000 -13.907600 -0.891904 39.081100 -0.000007 -0.000012 -0.202859 0.329718 31.602200 40.985400 -0.000006 -0.000013 0.771712 4.100930 -71.649300 11.754300 -0.000000 0.000003 -0.000240 -0.002159 -16.658600 -2.192510 6.469440 -0.000001 174.566000 19.314900 -179.773000 -39.081100 -0.002282 -0.040193 -0.066052 0.115530 30.976200 -40.985400 0.000008 0.000006 6.830630 14.338700 -73.020500 -11.754300 -0.000006 -0.000006 -0.002106 -0.030038 -17.794600
0.000000 0.000000 0.000000 0.000000 0.000000 -0.000000 -0.273483 90.603500 1.177690 89.329200 -4.826160 8.792880 15.735700 0.000005 -0.000001 87.853200 80.111100 -88.519800 8.984550 -0.406207 -0.000000 11.994600 -0.758958 -1.253000 16.377300 -0.000001 -0.000001 20.862000 -3.261940 2.506160 6.456720 -0.000001 -0.000000 -3.209710 -3.435960 1.094230 12.994200 -0.242716 4.980390 -87.743200 -6.748330 -71.460100 5.348090 -0.000007 -0.000001 -70.691200 -14.708900 -77.296800 24.328600 0.000019 0.000005 43.435700 -3.194970 -93.368700 22.291600 -0.000001 0.000005 21.179300 5.119070 4.673020 12.994500 -0.242716 -4.980390 90.614600 -2.782820 -77.539700 -5.348130 -0.000001 -0.000004 -65.128000 -15.078600 -77.562100 -24.328900 0.000322 -0.000009 19.962300 -1.015470 -92.794000 -22.291500 -0.000108 -0.000004 26.476700 5.353620 -1.486150 -2.192480 -6.469440 -0.000000 -175.276000 -13.933600 -0.892800 39.081100 -0.000007 -0.000012 -0.203142 0.330195 31.600900 40.985400 -0.000006 -0.000013 0.767042 4.135020 -71.674200 11.754300 -0.000000 0.000003 -0.000251 -0.002239 -16.661400 -2.192510 6.469440 -0.000001 174.573000 19.293800 -179.778000 -39.081100 -0.002282 -0.040193 -0.068926 0.120324 30.974700 -40.985400 0.000008 0.000006 6.795880 14.320100 -73.037600 -11.754300 -0.000006 -0.000006 -0.002017 -0.028935 -17.749700
0.000000 0.000000 0.000000 0.000000 0.000000 -0.000000 -0.286163 90.604000 1.212970 89.317200 -4.819150 8.744150 15.735700 0.000005 -0.000001 87.815600 80.124500 -88.476800 8.984550 -0.406207 -0.000000 11.967200 -0.770493 -1.241260 16.377300 -0.000001 -0.000001 20.729800 -3.266940 2.511650 6.456720 -0.000001 -0.000000 -3.181330 -3.430360 1.025690 12.994200 -0.242716 4.980390 -87.757500 -6.683820 -71.404800 5.348090 -0.000007 -0.000001 -70.650700 -14.658000 -77.240200 24.328600 0.000019 0.000005 43.394000 -3.168620 -93.345900 22.291600 -0.000001 0.000005 21.205500 5.120410 4.641920 12.994500 -0.242716 -4.980390 90.614600 -2.776760 -77.513200 -5.348130 -0.000001 -0.000004 -65.148400 -15.039400 -77.526100 -24.328900 0.000322 -0.000009 20.107900 -1.004190 -92.741300 -22.291500 -0.000108 -0.000004 26.505900 5.351480 -1.421830 -2.192480 -6.469440 -0.000000 -175.265000 -13.912000 -0.917982 39.081100 -0.000007 -0.000012 -0.203785 0.331363 31.591400 40.985400 -0.000006 -0.000013 0.753256 4.135630 -71.686800 11.754300 -0.000000 0.000003 -0.000259 -0.002301 -16.663700 -2.192510 6.469440 -0.000001 174.597000 19.338800 -179.785000 -39.081100 -0.002282 -0.040193 -0.065240 0.114279 30.953600 -40.985400 0.000008 0.000006 6.866810 14.337100 -73.076700 -11.754300 -0.000006 -0.000006 -0.002164 -0.030753 -17.823600
0.000000 0.000000 0.000000 0.000000 0.000000 -0.000000 -0.298162 90.609900 1.249200 89.328300 -4.811170 8.723740 15.735700 0.000005 -0.000001 87.858100 80.130400 -88.524200 8.984550 -0.406207 -0.000000 11.956000 -0.755647 -1.252680 16.377300 -0.000001 -0.000001 20.635100 -3.283960 2.525040 6.456720 -0.000001 -0.000000 -3.159210 -3.462520 1.057940 12.994200 -0.242716 4.980390 -87.769900 -6.636620 -71.378500 5.348090 -0.000007 -0.000001 -70.573400 -14.595400 -77.208300 24.328600 0.000019 0.000005 43.504400 -3.154420 -93.318200 22.291600 -0.000001 0.000005 21.193900 5.118900 4.677070 12.994500 -0.242716 -4.980390 90.606700 -2.735690 -77.490800 -5.348130 -0.000001 -0.000004 -65.066000 -15.084900 -77.475600 -24.328900 0.000322 -0.000009 20.110500 -0.999893 -92.729300 -22.291500 -0.000108 -0.000004 26.515200 5.352700 -1.458520 -2.192480 -6.469440 -0.000000 -175.282000 -13.875400 -0.878033 39.081100 -0.000007 -0.000012 -0.202834 0.330609 31.530100 40.985400 -0.000006 -0.000013 0.729555 4.092650 -71.686800 11.754300 -0.000000 0.000003 -0.000236 -0.002131 -16.657500 -2.192510 6.469440 -0.000001 174.612000 19.327100 -179.758000 -39.081100 -0.002282 -0.040193 -0.056848 0.100431 30.917600 -40.985400 0.000008 0.000006 6.941910 14.281800 -73.111300 -11.754300 -0.000006 -0.000006 -0.002150 -0.030575 -17.816400
0.000000 0.000000 0.000000 0.000000 0.000000 -0.000000 -0.315798 90.608400 1.292420 89.312400 -4.801230 8.704810 15.735700 0.000005 -0.000001 87.855700 80.137100 -88.517600 8.984550 -0.406207 -0.000000 11.942600 -0.755773 -1.244500 16.377300 -0.000001 -0.000001 20.522500 -3.305710 2.566630 6.456720 -0.000001 -0.000000 -3.065300 -3.489470 1.032460 12.994200 -0.242716 4.980390 -87.784800 -6.573540 -71.329800 5.348090 -0.000007 -0.000001 -70.413200 -14.567200 -77.192600 24.328600 0.000019 0.000005 43.397300 -3.091440 -93.264300 22.291600 -0.000001 0.000005 21.316700 5.123140 4.578130 12.994500 -0.242716 -4.980390 90.607900 -2.735520 -77.466400 -5.348130 -0.000001 -0.000004 -65.021300 -15.083400 -77.444600 -24.328900 0.000322 -0.000009 20.126800 -1.008640 -92.750700 -22.291500 -0.000108 -0.000004 26.567700 5.352280 -1.445990 -2.192480 -6.469440 -0.000000 -175.251000 -13.879000 -0.864295 39.081100 -0.000007 -0.000012 -0.204487 0.333356 31.526100 40.985400 -0.000006 -0.000013 0.713458 4.092950 -71.710000 11.754300 -0.000000 0.000003 -0.000266 -0.002350 -16.665500 -2.192510 6.469440 -0.000001 174.644000 19.345400 -179.741000 -39.081100 -0.002282 -0.040193 -0.052800 0.093697 30.910700 -40.985400 0.000008 0.000006 7.068040 14.238800 -73.173000 -11.754300 -0.000006 -0.000006 -0.002174 -0.030873 -17.828500
0.000000 0.000000 0.000000 0.000000 0.000000 -0.000000 -0.318603 90.604400 1.330560 89.336200 -4.795440 8.671440 15.735700 0.000005 -0.000001 87.857700 80.147300 -88.531500 8.984550 -0.406207 -0.000000 11.922300 -0.754671 -1.268540 16.377300 -0.000001 -0.000001 20.420000 -3.336230 2.577480 6.456720 -0.000001 -0.000000 -3.001590 -3.500130 1.076890 12.994200 -0.242716 4.980390 -87.795900 -6.510880 -71.251100 5.348090 -0.000007 -0.000001 -70.247500 -14.510400 -77.218400 24.328600 0.000019 0.000005 43.361000 -3.046550 -93.221100 22.291600 -0.000001 0.000005 21.263100 5.121000 4.628010 12.994500 -0.242716 -4.980390 90.605600 -2.713070 -77.411600 -5.348130 -0.000001 -0.000004 -64.980900 -15.054200 -77.457700 -24.328900 0.000322 -0.000009 20.149800 -1.023010 -92.786300 -22.291500 -0.000108 -0.000004 26.539500 5.351760 -1.430110 -2.192480 -6.469440 -0.000000 -175.287000 -13.871900 -0.868980 39.081100 -0.000007 -0.000012 -0.203442 0.331797 31.515000 40.985400 -0.000006 -0.000013 0.710858 4.080340 -71.731000 11.754300 -0.000000 0.000003 -0.000246 -0.002202 -16.660100 -2.192510 6.469440 -0.000001 174.620000 19.348200 -179.749000 -39.081100 -0.002282 -0.040193 -0.053105 0.094169 30.920500 -40.985400 0.000008 0.000006 7.048200 14.230600 -73.202800 -11.754300 -0.000006 -0.000006 -0.002281 -0.032175 -17.881500
0.000000 0.000000 0.000000 0.000000 0.000000 -0.000000 -0.329615 90.608300 1.370120 89.339200 -4.785310 8.650660 15.735700 0.000005 -0.000001 87.814700 80.156300 -88.485900 8.984550 -0.406207 -0.000000 11.903500 -0.768440 -1.262020 16.377300 -0.000001 -0.000001 20.344400 -3.351790 2.607450 6.456720 -0.000001 -0.000000 -2.936940 -3.468850 0.999765 12.994200 -0.242716 4.980390 -87.809000 -6.467720 -71.240500 5.348090 -0.000007 -0.000001 -70.124300 -14.543900 -77.158100 24.328600 0.000019 0.000005 43.441600 -3.046990 -93.212500 22.291600 -0.000001 0.000005 21.223000 5.118900 4.676930 12.994500 -0.242716 -4.980390 90.605000 -2.702460 -77.376400 -5.348130 -0.000001 -0.000004 -64.940900 -14.980600 -77.533200 -24.328900 0.000322 -0.000009 20.200400 -1.021910 -92.775800 -22.291500 -0.000108 -0.000004 26.548000 5.352110 -1.440660 -2.192480 -6.469440 -0.000000 -175.279000 -13.852900 -0.840685 39.081100 -0.000007 -0.000012 -0.206352 0.337119 31.471300 40.985400 -0.000006 -0.000013 0.699343 4.094560 -71.734900 11.754300 -0.000000 0.000003 -0.000242 -0.002177 -16.659200 -2.192510 6.469440 -0.000001 174.636000 19.353000 -179.732000 -39.081100 -0.002282 -0.040193 -0.046950 0.083976 30.895400 -40.985400 0.000008 0.000006 7.143740 14.189300 -73.243600 -11.754300 -0.000006 -0.000006 -0.002213 -0.031350 -17.847900
0.000000 0.000000 0.000000 0.000000 0.000000 -0.000000 -0.338559 90.606800 1.414240 89.330400 -4.770620 8.644280 15.735700 0.000005 -0.000001 87.816200 80.160400 -88.480700 8.984550 -0.406207 -0.000000 11.895500 -0.767324 -1.248590 16.377300 -0.000001 -0.000001 20.257700 -3.358470 2.574300 6.456720 -0.000001 -0.000000 -2.888360 -3.471800 1.023090 12.994200 -0.242716 4.980390 -87.823100 -6.407730 -71.191200 5.348090 -0.000007 -0.000001 -70.070000 -14.464900 -77.124300 24.328600 0.000019 0.000005 43.326900 -3.033080 -93.210700 22.291600 -0.000001 0.000005 21.227100 5.121420 4.618370 12.994500 -0.242716 -4.980390 90.592200 -2.621500 -77.265900 -5.348130 -0.000001 -0.000004 -64.824300 -14.855300 -77.637300 -24.328900 0.000322 -0.000009 20.051000 -1.002990 -92.746500 -22.291500 -0.000108 -0.000004 26.551100 5.354770 -1.521170 -2.192480 -6.469440 -0.000000 -175.255000 -13.845100 -0.815185 39.081100 -0.000007 -0.000012 -0.208022 0.339951 31.463500 40.985400 -0.000006 -0.000013 0.686755 4.103700 -71.755100 11.754300 -0.000000 0.000003 -0.000241 -0.002166 -16.658800 -2.192510 6.469440 -0.000001 174.651000 19.368500 -179.696000 -39.081100 -0.002282 -0.040193 -0.041391 0.074707 30.888400 -40.985400 0.000008 0.000006 7.276930 14.153200 -73.312600 -11.754300 -0.000006 -0.000006 -0.002151 -0.030585 -17.816800
